#!OML:ASF F:\VICON\USERDATA\INSTALL\rory3\rory3.ASF
:FULLY-SPECIFIED
:DEGREES
2151
root -13.2415 17.6289 16.2818 349.153 -66.0684 9.52985
lowerback 10.3554 1.49185 -0.28602
upperback 2.42498 1.89926 0.11178
thorax -3.29088 0.921694 0.0314183
lowerneck -13.7251 2.02929 -9.57655
upperneck 42.5844 4.41814 1.28778
head 17.9596 -0.0604582 2.98497
rclavicle 3.27995e-015 -1.19271e-014
rhumerus -38.0187 -15.3578 -70.4724
rradius 33.965
rwrist -1.00559
rhand -18.0744 8.23821
rfingers 7.12502
rthumb 8.19852 -21.5827
lclavicle 3.27995e-015 -1.19271e-014
lhumerus -33.1928 11.1328 75.8893
lradius 42.488
lwrist 1.77962
lhand -20.9139 23.925
lfingers 7.12502
lthumb 5.4575 53.8347
rfemur -11.5568 -10.503 14.1024
rtibia 52.8947
rfoot -15.4077 -15.9484
rtoes 16.2593
lfemur -9.05384 4.15213 -26.2969
ltibia 26.85
lfoot -11.0667 0.502585
ltoes -9.34332
2152
root -13.2541 17.6264 16.2775 349.791 -64.6655 8.84775
lowerback 10.3974 1.46095 -0.246527
upperback 2.48455 1.86191 0.111869
thorax -3.25075 0.902714 0.0140549
lowerneck -13.5404 2.14528 -9.38306
upperneck 42.4176 4.555 1.26431
head 17.803 0.0504046 2.95821
rclavicle 9.44227e-015 4.77083e-015
rhumerus -37.8629 -16.0776 -70.46
rradius 33.8561
rwrist -0.519248
rhand -18.1552 8.32431
rfingers 7.12502
rthumb 8.12052 -21.4997
lclavicle 9.44227e-015 4.77083e-015
lhumerus -33.1624 10.9693 75.858
lradius 42.6347
lwrist 1.87317
lhand -20.6274 24.0924
lfingers 7.12502
lthumb 5.7341 53.9948
rfemur -11.6171 -10.1442 14.1497
rtibia 53.1136
rfoot -15.5588 -14.5379
rtoes 14.0786
lfemur -9.11109 3.73608 -26.2485
ltibia 26.9147
lfoot -11.1842 -0.312464
ltoes -10.5003
2153
root -13.2662 17.6199 16.279 349.752 -63.2172 8.71911
lowerback 10.5364 1.40247 -0.342976
upperback 2.62981 1.7678 0.0371803
thorax -3.17663 0.855222 0.00192502
lowerneck -13.5135 2.24753 -9.31516
upperneck 42.4147 4.68277 1.36113
head 17.7779 0.139149 3.01608
rclavicle 4.95968e-014 5.56597e-015
rhumerus -37.7645 -16.256 -70.6553
rradius 34.0961
rwrist -0.588646
rhand -18.0276 8.59094
rfingers 7.12502
rthumb 8.24371 -21.2282
lclavicle 4.95968e-014 5.56597e-015
lhumerus -33.1153 10.816 75.8067
lradius 42.7465
lwrist 2.08574
lhand -20.4661 24.3153
lfingers 7.12502
lthumb 5.88987 54.2134
rfemur -11.4557 -10.0416 13.8245
rtibia 53.2535
rfoot -15.9287 -12.6677
rtoes 10.6295
lfemur -8.94011 3.0022 -26.4631
ltibia 26.9615
lfoot -11.3763 -0.858205
ltoes -12.2604
2154
root -13.2762 17.6134 16.2777 349.793 -61.901 8.57194
lowerback 10.6617 1.41073 -0.42478
upperback 2.75282 1.76442 -0.0339432
thorax -3.11796 0.852822 -0.0265612
lowerneck -13.6809 2.2728 -9.28733
upperneck 42.6628 4.73803 1.44424
head 17.9619 0.167735 3.07519
rclavicle 8.69683e-014 -5.56597e-015
rhumerus -37.6802 -16.6023 -70.8362
rradius 34.387
rwrist -0.483575
rhand -17.8236 8.8126
rfingers 7.12502
rthumb 8.44057 -20.9987
lclavicle 8.69683e-014 -5.56597e-015
lhumerus -33.0131 10.5991 75.8046
lradius 42.7879
lwrist 2.44972
lhand -20.6866 24.3656
lfingers 7.12502
lthumb 5.67691 54.2695
rfemur -11.412 -9.84712 13.5698
rtibia 53.3203
rfoot -16.1805 -10.8245
rtoes 7.21253
lfemur -8.81211 2.41078 -26.6339
ltibia 26.9418
lfoot -11.4274 -1.55243
ltoes -9.32089
2155
root -13.2896 17.6103 16.2697 350.372 -60.6746 7.88629
lowerback 10.7548 1.50389 -0.271122
upperback 2.85446 1.90093 -0.0780482
thorax -3.0575 0.919161 -0.17733
lowerneck -13.8415 2.21643 -9.08936
upperneck 42.9406 4.62044 1.50275
head 18.1838 0.149528 3.06472
rclavicle 8.01102e-014 -7.95139e-015
rhumerus -37.6468 -17.2683 -71.0373
rradius 34.6546
rwrist -0.202903
rhand -17.691 8.78369
rfingers 7.12502
rthumb 8.56855 -21.0224
lclavicle 8.01102e-014 -7.95139e-015
lhumerus -32.7222 10.2255 75.8021
lradius 42.6472
lwrist 2.69356
lhand -20.8815 24.3004
lfingers 7.12502
lthumb 5.48879 54.2093
rfemur -11.4193 -9.35846 13.7325
rtibia 53.2909
rfoot -16.3624 -9.47811
rtoes 5.54074
lfemur -8.74068 2.15159 -26.4389
ltibia 26.8703
lfoot -11.4389 -2.67577
ltoes -4.48058
